<svg width="144" height="40" viewBox="0 0 144 40" fill="none" xmlns="http://www.w3.org/2000/svg">
<path d="M85.236 19.7804C85.236 20.0194 85.2176 20.3595 85.1808 20.8007H73.6266C73.8289 21.8853 74.3528 22.7494 75.1985 23.3928C76.0625 24.0179 77.1288 24.3304 78.3972 24.3304C80.015 24.3304 81.3478 23.7973 82.3957 22.731L84.2433 24.8543C83.5815 25.6448 82.745 26.2423 81.7339 26.6467C80.7228 27.0512 79.583 27.2534 78.3145 27.2534C76.6967 27.2534 75.272 26.9317 74.0403 26.2883C72.8086 25.6448 71.8526 24.7532 71.1724 23.6134C70.5106 22.4552 70.1797 21.15 70.1797 19.6977C70.1797 18.2637 70.5014 16.9769 71.1448 15.8371C71.8067 14.6789 72.7166 13.7781 73.8748 13.1347C75.033 12.4912 76.3382 12.1695 77.7906 12.1695C79.2245 12.1695 80.5022 12.4912 81.6236 13.1347C82.7634 13.7597 83.6458 14.6513 84.2708 15.8095C84.9143 16.9493 85.236 18.2729 85.236 19.7804ZM77.7906 14.9271C76.6875 14.9271 75.75 15.258 74.9778 15.9198C74.2241 16.5632 73.7645 17.4273 73.5991 18.5119H81.9545C81.8074 17.4457 81.357 16.5816 80.6033 15.9198C79.8495 15.258 78.912 14.9271 77.7906 14.9271Z" fill="#232323"/>
<path d="M95.303 27.2534C93.7772 27.2534 92.4076 26.9317 91.1943 26.2883C89.9809 25.6448 89.0342 24.7532 88.354 23.6134C87.6738 22.4552 87.3337 21.15 87.3337 19.6977C87.3337 18.2454 87.6738 16.9493 88.354 15.8095C89.0342 14.6697 89.9717 13.7781 91.1667 13.1347C92.38 12.4912 93.7588 12.1695 95.303 12.1695C96.7554 12.1695 98.0238 12.4637 99.1085 13.0519C100.212 13.6402 101.039 14.4859 101.59 15.5889L98.943 17.1331C98.5202 16.4529 97.9871 15.9474 97.3436 15.6165C96.7186 15.2672 96.0292 15.0925 95.2755 15.0925C93.9886 15.0925 92.9223 15.5154 92.0767 16.361C91.231 17.1883 90.8082 18.3005 90.8082 19.6977C90.8082 21.0948 91.2218 22.2163 92.0491 23.0619C92.8948 23.8892 93.9702 24.3028 95.2755 24.3028C96.0292 24.3028 96.7186 24.1374 97.3436 23.8065C97.9871 23.4572 98.5202 22.9424 98.943 22.2622L101.59 23.8065C101.02 24.9095 100.184 25.7643 99.0809 26.371C97.9963 26.9593 96.737 27.2534 95.303 27.2534Z" fill="#232323"/>
<path d="M113.61 26.2607C113.206 26.5916 112.709 26.8398 112.121 27.0052C111.551 27.1707 110.945 27.2534 110.301 27.2534C108.683 27.2534 107.433 26.8306 106.551 25.9849C105.668 25.1393 105.227 23.9076 105.227 22.2898V15.2028H102.801V12.4453H105.227V9.08105H108.674V12.4453H112.618V15.2028H108.674V22.2071C108.674 22.924 108.849 23.4755 109.198 23.8616C109.547 24.2293 110.053 24.4131 110.715 24.4131C111.487 24.4131 112.13 24.2109 112.645 23.8065L113.61 26.2607Z" fill="#232323"/>
<path d="M129.804 19.7804C129.804 20.0194 129.786 20.3595 129.749 20.8007H118.195C118.397 21.8853 118.921 22.7494 119.767 23.3928C120.631 24.0179 121.697 24.3304 122.965 24.3304C124.583 24.3304 125.916 23.7973 126.964 22.731L128.811 24.8543C128.15 25.6448 127.313 26.2423 126.302 26.6467C125.291 27.0512 124.151 27.2534 122.883 27.2534C121.265 27.2534 119.84 26.9317 118.608 26.2883C117.377 25.6448 116.421 24.7532 115.74 23.6134C115.079 22.4552 114.748 21.15 114.748 19.6977C114.748 18.2637 115.069 16.9769 115.713 15.8371C116.375 14.6789 117.285 13.7781 118.443 13.1347C119.601 12.4912 120.906 12.1695 122.359 12.1695C123.793 12.1695 125.07 12.4912 126.192 13.1347C127.331 13.7597 128.214 14.6513 128.839 15.8095C129.482 16.9493 129.804 18.2729 129.804 19.7804ZM122.359 14.9271C121.256 14.9271 120.318 15.258 119.546 15.9198C118.792 16.5632 118.333 17.4273 118.167 18.5119H126.523C126.375 17.4457 125.925 16.5816 125.171 15.9198C124.418 15.258 123.48 14.9271 122.359 14.9271Z" fill="#232323"/>
<path d="M136.397 14.4859C137.389 12.9416 139.136 12.1695 141.636 12.1695V15.451C141.342 15.3959 141.075 15.3683 140.836 15.3683C139.494 15.3683 138.446 15.7636 137.693 16.5541C136.939 17.3262 136.562 18.4476 136.562 19.9183V27.0604H133.115V12.335H136.397V14.4859Z" fill="#232323"/>
<path d="M41.4605 27.3364C39.9714 27.3364 38.5283 27.125 37.1311 26.7022C35.7523 26.2793 34.6585 25.7186 33.8496 25.02L35.0905 22.2349C35.881 22.86 36.8462 23.3747 37.986 23.7791C39.1441 24.1652 40.3023 24.3582 41.4605 24.3582C42.8944 24.3582 43.9607 24.1284 44.6593 23.6688C45.3762 23.2092 45.7347 22.6026 45.7347 21.8488C45.7347 21.2973 45.5325 20.8469 45.1281 20.4976C44.742 20.13 44.2456 19.845 43.639 19.6428C43.0323 19.4406 42.205 19.2108 41.1572 18.9534C39.6865 18.6041 38.4915 18.2548 37.5723 17.9055C36.6715 17.5562 35.8902 17.0139 35.2284 16.2786C34.585 15.5248 34.2632 14.5137 34.2632 13.2452C34.2632 12.179 34.5482 11.2138 35.1181 10.3498C35.7064 9.46738 36.5796 8.7688 37.7378 8.25405C38.9143 7.73931 40.3483 7.48193 42.0396 7.48193C43.2161 7.48193 44.3743 7.629 45.5141 7.92314C46.6539 8.21728 47.6374 8.64011 48.4647 9.19162L47.3341 11.9768C46.4884 11.4804 45.606 11.1035 44.6868 10.8462C43.7677 10.5888 42.876 10.4601 42.012 10.4601C40.5965 10.4601 39.5394 10.6991 38.8408 11.1771C38.1606 11.655 37.8205 12.2893 37.8205 13.0798C37.8205 13.6313 38.0135 14.0817 38.3996 14.431C38.804 14.7803 39.3096 15.056 39.9163 15.2583C40.5229 15.4605 41.3502 15.6903 42.3981 15.9477C43.832 16.2786 45.0086 16.6279 45.9277 16.9955C46.8469 17.3448 47.6282 17.8871 48.2717 18.6225C48.9335 19.3578 49.2644 20.3506 49.2644 21.6007C49.2644 22.6669 48.9703 23.6321 48.382 24.4961C47.8121 25.3601 46.9389 26.0495 45.7623 26.5643C44.5857 27.079 43.1518 27.3364 41.4605 27.3364Z" fill="#6EDD7B"/>
<path d="M60.6506 12.1698C62.0845 12.1698 63.3622 12.4823 64.4836 13.1074C65.6234 13.7324 66.515 14.6148 67.1584 15.7546C67.8018 16.8944 68.1236 18.2089 68.1236 19.6979C68.1236 21.187 67.8018 22.5107 67.1584 23.6688C66.515 24.8086 65.6234 25.6911 64.4836 26.3161C63.3622 26.9412 62.0845 27.2537 60.6506 27.2537C58.6651 27.2537 57.0933 26.5919 55.9351 25.2682V32.4103H52.4882V12.3352H55.7697V14.2655C56.3396 13.567 57.0381 13.043 57.8654 12.6937C58.7111 12.3444 59.6394 12.1698 60.6506 12.1698ZM60.2645 24.3031C61.533 24.3031 62.5717 23.8803 63.3805 23.0346C64.2078 22.1889 64.6214 21.0767 64.6214 19.6979C64.6214 18.3192 64.2078 17.2069 63.3805 16.3613C62.5717 15.5156 61.533 15.0928 60.2645 15.0928C59.4372 15.0928 58.6927 15.2858 58.0309 15.6719C57.3691 16.0396 56.8451 16.5727 56.4591 17.2713C56.073 17.9699 55.88 18.7788 55.88 19.6979C55.88 20.6171 56.073 21.426 56.4591 22.1246C56.8451 22.8232 57.3691 23.3655 58.0309 23.7516C58.6927 24.1192 59.4372 24.3031 60.2645 24.3031Z" fill="#6EDD7B"/>
<path d="M2 13.8242C2 8.95073 5.95073 5 10.8242 5C15.6977 5 19.6484 8.95073 19.6484 13.8242H2Z" fill="#6EDD7B"/>
<path d="M2 13.8242C2 18.6977 5.95073 22.6484 10.8242 22.6484V13.8242H2Z" fill="#B7EA97"/>
<path d="M24.0605 27.0606C24.0605 31.934 20.1098 35.8848 15.2363 35.8848C10.3629 35.8848 6.41213 31.934 6.41213 27.0606L24.0605 27.0606Z" fill="#B7EA97"/>
<path d="M24.0605 27.0605C24.0605 22.1871 20.1098 18.2363 15.2363 18.2363L15.2363 27.0605L24.0605 27.0605Z" fill="#6EDD7B"/>
</svg>
